<svg width="32" height="32" viewBox="0 0 32 32" fill="none" xmlns="http://www.w3.org/2000/svg">
<rect width="32" height="32" rx="5" fill="#6298FA"/>
<g clip-path="url(#clip0)">
<path d="M7.40692 14.3086L4.91765 16.7277C4.26766 17.3594 4.16651 18.3671 4.67791 19.1154L5.85449 20.8368C5.99566 21.0434 6.07117 21.2877 6.07117 21.5379V22.8491H7.93491V17.2334V14.7282L7.40692 14.3086Z" fill="#F1D0A5"/>
<path d="M24.5931 14.3086L27.0823 16.7277C27.7323 17.3594 27.8334 18.3671 27.3221 19.1154L26.1455 20.8368C26.0043 21.0434 25.9288 21.2877 25.9288 21.5379V22.8491H24.0651V17.2334V14.7282L24.5931 14.3086Z" fill="#F1D0A5"/>
<path d="M27.0822 16.7277L24.5929 14.3086L24.1539 14.6574L26.2842 16.7277C26.9342 17.3594 27.0353 18.3671 26.5239 19.1154L25.3474 20.8368C25.2062 21.0434 25.1307 21.2877 25.1307 21.5379V22.8491H25.9286V21.5379C25.9286 21.2877 26.0041 21.0434 26.1453 20.8368L27.3219 19.1154C27.8333 18.3671 27.7322 17.3594 27.0822 16.7277Z" fill="#F1B986"/>
<path d="M7.66072 10.0742C7.43781 10.0742 7.25708 10.2549 7.25708 10.4779V18.3284C7.25708 19.0963 7.87961 19.7188 8.64748 19.7188H14.477C14.6518 19.7188 14.806 19.8334 14.8563 20.0009L14.927 20.1656C14.9773 20.3331 15.1315 20.4477 15.3063 20.4477H16.6938C16.8686 20.4477 17.0228 20.3331 17.0731 20.1656L17.1438 20.0009C17.1941 19.8334 17.3483 19.7188 17.5231 19.7188H23.3527C24.1206 19.7188 24.7431 19.0963 24.7431 18.3284V10.4779C24.7431 10.2549 24.5624 10.0742 24.3394 10.0742H18.0409L15.9802 12.8798L13.6683 10.0742H7.66072Z" fill="#9DC6FB"/>
<path d="M24.3395 10.0742H23.4655C23.6884 10.0742 23.8692 10.2549 23.8692 10.4779V18.3284C23.8692 19.0963 23.2466 19.7188 22.4788 19.7188H23.3528C24.1207 19.7188 24.7432 19.0963 24.7432 18.3284V10.4779C24.7432 10.2549 24.5625 10.0742 24.3395 10.0742Z" fill="#8993DA"/>
<path d="M23.0444 18.191H16.905C16.4052 18.191 16 17.7858 16 17.286L14.9445 16.8751V11.0931L16 10.6449C16 9.58864 16.8562 8.73242 17.9124 8.73242H23.0444C23.1769 8.73242 23.2843 8.8398 23.2843 8.9723V17.9511C23.2842 18.0836 23.1768 18.191 23.0444 18.191Z" fill="#FFF6F4"/>
<path d="M23.0443 8.73242H22.2386C22.371 8.73242 22.4785 8.8398 22.4785 8.9723V17.9511C22.4785 18.0836 22.3711 18.191 22.2386 18.191H23.0443C23.1768 18.191 23.2842 18.0836 23.2842 17.9511V8.9723C23.2842 8.83985 23.1768 8.73242 23.0443 8.73242Z" fill="#D8E2F1"/>
<path d="M15.0951 18.191H8.9557C8.8232 18.191 8.71582 18.0836 8.71582 17.9511V8.9723C8.71582 8.8398 8.8232 8.73242 8.9557 8.73242H14.0877C15.1439 8.73242 16.0001 9.58864 16.0001 10.6449V17.286C16.0001 17.7858 15.5949 18.191 15.0951 18.191Z" fill="#FFF6F4"/>
<path d="M14.0875 8.73242H13.2599C14.3162 8.73242 15.1724 9.58864 15.1724 10.6449V17.286C15.1724 17.7858 14.7672 18.191 14.2674 18.191H15.0949C15.5947 18.191 15.9999 17.7858 15.9999 17.286V10.6449C15.9999 9.58864 15.1437 8.73242 14.0875 8.73242Z" fill="#D8E2F1"/>
<path d="M23.3904 22.8484L23.3607 21.416C23.356 21.2122 23.3193 21.0103 23.2521 20.8178C23.0633 20.277 23.1702 19.6769 23.5342 19.2347C23.6108 19.1416 23.6228 19.0112 23.5644 18.9057L22.4036 16.6616C22.2844 16.4312 22.3297 16.15 22.5152 15.9687C22.7495 15.7398 23.1254 15.7456 23.3525 15.9817L25.5174 18.2324L24.9561 20.4813L24.664 22.8484H23.3904V22.8484Z" fill="#F1D0A5"/>
<path d="M8.60973 22.8484L8.63945 21.416C8.64418 21.2122 8.68083 21.0103 8.74805 20.8178C8.93689 20.277 8.82993 19.6769 8.46594 19.2347C8.3893 19.1416 8.3773 19.0112 8.4357 18.9057L9.59658 16.6616C9.71577 16.4312 9.67045 16.15 9.48494 15.9687C9.25068 15.7398 8.87474 15.7456 8.64765 15.9817L6.48273 18.2324L7.04404 20.4813L7.33618 22.8484H8.60973V22.8484Z" fill="#F1D0A5"/>
<path d="M9.59673 16.6616C9.71592 16.4313 9.67059 16.15 9.48508 15.9688C9.28012 15.7684 8.96665 15.7479 8.73938 15.904C8.76727 15.9231 8.79422 15.9443 8.81925 15.9688C9.00476 16.15 9.05008 16.4312 8.93089 16.6616L7.76997 18.9057C7.71157 19.0112 7.72357 19.1416 7.8002 19.2348C8.16424 19.677 8.27115 20.2771 8.08231 20.8178C8.0151 21.0103 7.97845 21.2122 7.97372 21.416L7.944 22.8484H8.60983L8.63955 21.416C8.64428 21.2122 8.68094 21.0103 8.74815 20.8178C8.93699 20.2771 8.83003 19.677 8.46604 19.2348C8.3894 19.1417 8.37741 19.0112 8.43581 18.9057L9.59673 16.6616Z" fill="#F1B986"/>
<path d="M26.5479 25.269H22.9028C22.7416 25.269 22.6109 25.1383 22.6109 24.9771V23.1395C22.6109 22.9783 22.7416 22.8477 22.9028 22.8477H26.5479C26.709 22.8477 26.8397 22.9783 26.8397 23.1395V24.9771C26.8397 25.1383 26.709 25.269 26.5479 25.269Z" fill="#365E7D"/>
<path d="M26.5407 22.8477H25.7406C25.9056 22.8477 26.0394 22.9753 26.0394 23.1328V24.9839C26.0394 25.1413 25.9056 25.269 25.7406 25.269H26.5407C26.7058 25.269 26.8395 25.1414 26.8395 24.9839V23.1328C26.8395 22.9753 26.7058 22.8477 26.5407 22.8477Z" fill="#2B4D66"/>
<path d="M9.09728 25.269H5.4522C5.29101 25.269 5.16034 25.1383 5.16034 24.9771V23.1395C5.16034 22.9783 5.29101 22.8477 5.4522 22.8477H9.09728C9.25846 22.8477 9.38914 22.9783 9.38914 23.1395V24.9771C9.38914 25.1383 9.25846 25.269 9.09728 25.269Z" fill="#365E7D"/>
<path d="M9.0902 22.8477H8.29004C8.45507 22.8477 8.58884 22.9753 8.58884 23.1328V24.9839C8.58884 25.1413 8.45507 25.269 8.29004 25.269H9.09016C9.25519 25.269 9.38895 25.1414 9.38895 24.9839V23.1328C9.389 22.9753 9.25519 22.8477 9.0902 22.8477Z" fill="#2B4D66"/>
<path d="M26.4358 21.0342L27.6125 19.3127C28.2219 18.421 28.102 17.2274 27.3274 16.4747L25.0945 14.3048V10.4773C25.0945 10.0609 24.7557 9.72214 24.3394 9.72214H23.6358V8.97231C23.6358 8.64619 23.3705 8.38091 23.0444 8.38091H17.9124C17.1086 8.38091 16.4018 8.80236 16 9.43548C15.5981 8.80231 14.8913 8.38091 14.0875 8.38091H12.5943C12.4002 8.38091 12.2428 8.5383 12.2428 8.73243C12.2428 8.92657 12.4002 9.08396 12.5943 9.08396H14.0875C14.9482 9.08396 15.6484 9.78415 15.6484 10.6449V17.286C15.6484 17.5912 15.4002 17.8395 15.0949 17.8395H9.3829L9.90887 16.8227C10.1003 16.4526 10.0287 16.0082 9.73063 15.717C9.55196 15.5424 9.31677 15.4476 9.06723 15.4493V9.08391H11.1888C11.383 9.08391 11.5404 8.92652 11.5404 8.73238C11.5404 8.53825 11.383 8.38086 11.1888 8.38086H8.95559C8.62951 8.38086 8.36423 8.64614 8.36423 8.97226V9.72209H7.66066C7.24422 9.72209 6.90549 10.0609 6.90549 10.4773V14.3047L4.67261 16.4746C3.89799 17.2274 3.77814 18.421 4.38759 19.3128L5.56422 21.0343C5.66583 21.183 5.71954 21.3568 5.71954 21.537V22.4966H5.45224C5.09753 22.4966 4.80886 22.7852 4.80886 23.14V24.9776C4.80886 25.3324 5.09748 25.621 5.45224 25.621H6.14381C6.33799 25.621 6.49533 25.4637 6.49533 25.2695C6.49533 25.0753 6.33799 24.918 6.14381 24.918H5.51191V23.1997H9.03765V24.918H7.54935C7.35516 24.918 7.19782 25.0753 7.19782 25.2695C7.19782 25.4637 7.35516 25.621 7.54935 25.621H9.09732C9.45208 25.621 9.7407 25.3324 9.7407 24.9776V23.14C9.7407 22.7853 9.45213 22.4966 9.09732 22.4966H8.96862L8.99093 21.4239C8.99482 21.2566 9.02477 21.0916 9.07998 20.9334C9.1777 20.6535 9.20929 20.3581 9.17887 20.0698H14.477C14.523 20.0698 14.5089 20.0962 14.5972 20.2882C14.6993 20.5945 14.9814 20.7988 15.3063 20.7988H16.6938C17.0187 20.7988 17.3007 20.5946 17.4028 20.2882C17.4918 20.0948 17.4774 20.0698 17.5231 20.0698H22.8211C22.7906 20.3581 22.8223 20.6535 22.92 20.9334C22.9753 21.0916 23.0052 21.2566 23.0091 21.423L23.0313 22.4966H22.9026C22.5479 22.4966 22.2593 22.7852 22.2593 23.14V24.9776C22.2593 25.3323 22.5479 25.621 22.9026 25.621H24.0402C24.2344 25.621 24.3917 25.4636 24.3917 25.2695C24.3917 25.0753 24.2344 24.9179 24.0402 24.9179H22.9623V23.1997H26.4881V24.9179H25.4458C25.2516 24.9179 25.0942 25.0753 25.0942 25.2695C25.0942 25.4636 25.2516 25.621 25.4458 25.621H26.5478C26.9026 25.621 27.1912 25.3324 27.1912 24.9776V23.14C27.1912 22.7852 26.9026 22.4966 26.5478 22.4966H26.2805V21.5369C26.2804 21.3568 26.3342 21.1829 26.4358 21.0342ZM24.3393 10.4251C24.3681 10.4251 24.3914 10.4485 24.3914 10.4773V16.5547L23.6358 15.7691V10.4251H24.3393ZM17.9124 9.08391H22.9327V15.4494C22.6844 15.4487 22.448 15.5424 22.2694 15.7169C21.9713 16.0082 21.8996 16.4526 22.0911 16.8227L22.6171 17.8395H16.905C16.5998 17.8395 16.3515 17.5912 16.3515 17.286V10.6448C16.3515 9.78415 17.0517 9.08391 17.9124 9.08391ZM7.66066 10.4251H8.36423V15.7691L7.6085 16.5547V10.4773C7.6085 10.4485 7.63188 10.4251 7.66066 10.4251ZM6.42259 22.4965V21.5369C6.42259 21.2146 6.32646 20.9035 6.14461 20.6374L4.96803 18.916C4.55201 18.3073 4.6338 17.4926 5.16249 16.9788L6.90545 15.2849V17.2855L6.22939 17.9884C6.09483 18.1283 6.09914 18.3508 6.23905 18.4854C6.379 18.62 6.60145 18.6156 6.73606 18.4757L8.90098 16.225C8.99318 16.1292 9.14513 16.1278 9.2392 16.2198C9.31466 16.2935 9.3328 16.406 9.28438 16.4997L8.12533 18.7402C7.99944 18.9723 8.02634 19.2534 8.19451 19.4577C8.47864 19.8028 8.56357 20.2795 8.41616 20.7015C8.33671 20.9291 8.29359 21.1666 8.28802 21.4084L8.26543 22.4965H6.42259V22.4965ZM17.523 19.3667C17.1981 19.3667 16.9161 19.5709 16.814 19.8773C16.7249 20.0703 16.7395 20.0957 16.6937 20.0957H15.3062C15.2603 20.0957 15.2742 20.0692 15.186 19.8774C15.0839 19.571 14.8019 19.3667 14.4769 19.3667H8.97016C8.91176 19.2523 8.84225 19.143 8.76145 19.0408L9.01923 18.5425H15.095C15.4502 18.5425 15.7712 18.3942 16 18.1563C16.2288 18.3941 16.5498 18.5425 16.9051 18.5425H22.9808L23.2386 19.0408C23.1577 19.143 23.0882 19.2523 23.0298 19.3667H17.523ZM23.7345 22.4965L23.7119 21.4076C23.7064 21.1667 23.6632 20.9292 23.5838 20.7016C23.4363 20.2796 23.5213 19.803 23.8054 19.4578C23.9736 19.2535 24.0005 18.9725 23.8746 18.7402L22.7156 16.4998C22.6671 16.4061 22.6853 16.2936 22.7608 16.2199C22.8547 16.128 23.0066 16.1291 23.099 16.2251L25.2639 18.4758C25.3985 18.6158 25.621 18.6201 25.7609 18.4855C25.9008 18.3509 25.9051 18.1284 25.7706 17.9885L25.0945 17.2856V15.285L26.8375 16.9789C27.3662 17.4927 27.4479 18.3074 27.0319 18.9161L25.8553 20.6375C25.6734 20.9036 25.5773 21.2147 25.5773 21.537V22.4966H23.7345V22.4965Z" fill="black"/>
<path d="M17.846 11.1074H21.2036C21.3978 11.1074 21.5551 10.95 21.5551 10.7558C21.5551 10.5617 21.3978 10.4043 21.2036 10.4043H17.846C17.6518 10.4043 17.4945 10.5617 17.4945 10.7558C17.4945 10.95 17.6518 11.1074 17.846 11.1074Z" fill="black"/>
<path d="M17.846 12.912H21.2036C21.3978 12.912 21.5551 12.7546 21.5551 12.5605C21.5551 12.3664 21.3978 12.209 21.2036 12.209H17.846C17.6518 12.209 17.4945 12.3664 17.4945 12.5605C17.4945 12.7546 17.6518 12.912 17.846 12.912Z" fill="black"/>
<path d="M17.846 14.7148H21.2036C21.3978 14.7148 21.5551 14.5574 21.5551 14.3632C21.5551 14.1691 21.3978 14.0117 21.2036 14.0117H17.846C17.6518 14.0117 17.4945 14.1691 17.4945 14.3632C17.4945 14.5574 17.6518 14.7148 17.846 14.7148Z" fill="black"/>
<path d="M17.846 16.5175H21.2036C21.3978 16.5175 21.5551 16.3601 21.5551 16.166C21.5551 15.9718 21.3978 15.8145 21.2036 15.8145H17.846C17.6518 15.8145 17.4945 15.9718 17.4945 16.166C17.4945 16.3601 17.6518 16.5175 17.846 16.5175Z" fill="black"/>
<path d="M14.1538 10.4043H10.7962C10.602 10.4043 10.4447 10.5617 10.4447 10.7558C10.4447 10.95 10.602 11.1074 10.7962 11.1074H14.1538C14.3479 11.1074 14.5053 10.95 14.5053 10.7558C14.5053 10.5617 14.3479 10.4043 14.1538 10.4043Z" fill="black"/>
<path d="M14.1538 12.209H10.7962C10.602 12.209 10.4447 12.3664 10.4447 12.5605C10.4447 12.7546 10.602 12.912 10.7962 12.912H14.1538C14.3479 12.912 14.5053 12.7546 14.5053 12.5605C14.5053 12.3664 14.3479 12.209 14.1538 12.209Z" fill="black"/>
<path d="M14.1538 14.0117H10.7962C10.602 14.0117 10.4447 14.1691 10.4447 14.3632C10.4447 14.5574 10.602 14.7148 10.7962 14.7148H14.1538C14.3479 14.7148 14.5053 14.5574 14.5053 14.3632C14.5053 14.1691 14.3479 14.0117 14.1538 14.0117Z" fill="black"/>
<path d="M14.1538 15.8145H10.7962C10.602 15.8145 10.4447 15.9718 10.4447 16.166C10.4447 16.3601 10.602 16.5175 10.7962 16.5175H14.1538C14.3479 16.5175 14.5053 16.3601 14.5053 16.166C14.5053 15.9718 14.3479 15.8145 14.1538 15.8145Z" fill="black"/>
</g>
<defs>
<clipPath id="clip0">
<rect width="24" height="24" fill="white" transform="translate(4 5)"/>
</clipPath>
</defs>
</svg>
