<svg width="48" height="48" viewBox="0 0 48 48" fill="none" xmlns="http://www.w3.org/2000/svg">
<rect width="48" height="48" rx="10" fill="#64C97F"/>
<path d="M13.2045 36.7421V41.9992H20.6733V33.7344L13.2045 36.7421Z" fill="#FFB655"/>
<path d="M19.3612 30.4041L14.4043 25.4473L13.6154 26.2362C12.7404 27.1112 12.7404 28.5299 13.6154 29.4049L15.297 31.0865L13.9741 32.4094L9.42661 27.8618V23.6899C9.42661 22.4524 8.42346 21.4492 7.18596 21.4492H6V29.718L13.0237 36.7417C14.7737 38.4918 17.6111 38.4918 19.3612 36.7417C21.1113 34.9916 21.1113 32.1542 19.3612 30.4041Z" fill="#864927"/>
<path d="M34.795 36.7421V41.9992H27.3262V33.7344L34.795 36.7421Z" fill="#E06A50"/>
<path d="M28.6387 30.4041L33.5956 25.4472L34.3845 26.2361C35.2595 27.1111 35.2595 28.5298 34.3845 29.4049L32.7029 31.0865L34.0257 32.4093L38.5733 27.8618V23.6899C38.5733 22.4524 39.5764 21.4492 40.8139 21.4492H41.9999V29.718L34.9762 36.7416C33.2261 38.4917 30.3888 38.4917 28.6387 36.7416C26.8886 34.9915 26.8886 32.1541 28.6387 30.4041Z" fill="#E3A76F"/>
<path d="M18.8455 6C15.4641 6 12.723 8.74113 12.723 12.1225C12.723 12.1225 12.2111 18.8083 24.0001 26.4609L26.1095 17.6016L24.0001 8.81742C22.9112 7.12275 21.0095 6 18.8455 6V6Z" fill="#E06A50"/>
<path d="M35.2771 12.1225C35.2771 8.74113 32.536 6 29.1546 6C26.9906 6 25.0889 7.12275 24 8.81742V26.4609C35.789 18.8084 35.2771 12.1225 35.2771 12.1225Z" fill="#C53232"/>
</svg>
