<svg width="343" height="45" viewBox="0 0 343 45" fill="none" xmlns="http://www.w3.org/2000/svg">
<rect width="32" height="32" rx="5" fill="#64C97F"/>
<g clip-path="url(#clip0)">
<path d="M23.4692 27.5312H6.40674C5.88896 27.5312 5.46924 27.1115 5.46924 26.5938V5.40625C5.46924 4.88847 5.88896 4.46875 6.40674 4.46875H23.4692C23.987 4.46875 24.4067 4.88847 24.4067 5.40625V26.5938C24.4067 27.1115 23.987 27.5312 23.4692 27.5312Z" fill="white"/>
<path d="M14.9382 14.6875C17.061 14.6875 18.7819 12.9666 18.7819 10.8438C18.7819 8.72091 17.061 7 14.9382 7C12.8153 7 11.0944 8.72091 11.0944 10.8438C11.0944 12.9666 12.8153 14.6875 14.9382 14.6875Z" fill="#FE6663"/>
<path d="M16.1567 10.3516V10.6562C16.1567 11.3293 15.6111 11.875 14.938 11.875C14.2649 11.875 13.7192 11.3293 13.7192 10.6562V10.3516C13.7192 9.67848 14.2649 9.13281 14.938 9.13281C15.6111 9.13281 16.1567 9.67848 16.1567 10.3516Z" fill="#FFCDAC"/>
<path d="M14.938 11.875C13.7484 11.875 12.7319 12.6141 12.3209 13.6578C13.0072 14.2963 13.9267 14.6875 14.938 14.6875C15.9494 14.6875 16.8689 14.2963 17.5552 13.6578C17.1442 12.6141 16.1277 11.875 14.938 11.875Z" fill="#A5DDFF"/>
<path d="M25.4642 11.5267L25.732 11.0627C26.1462 10.3453 27.0636 10.0995 27.781 10.5137C28.4985 10.9279 28.7443 11.8453 28.3301 12.5627L22.4313 22.7798L19.8332 21.2798L22.3777 16.8726L25.4642 11.5267Z" fill="#FFBC53"/>
<path d="M27.7817 10.5157C27.0643 10.1014 26.1469 10.3473 25.7327 11.0647L25.0363 12.271L27.6344 13.771L28.3308 12.5647C28.745 11.8473 28.4992 10.9299 27.7817 10.5157Z" fill="#FE6663"/>
<path d="M22.4316 22.7812L19.4183 25.0005L19.8336 21.2812L22.4316 22.7812Z" fill="#9AD8FF"/>
<path d="M24.4067 22.6716C24.1479 22.6716 23.938 22.8815 23.938 23.1404V26.5938C23.938 26.8522 23.7277 27.0625 23.4692 27.0625H6.40674C6.14827 27.0625 5.93799 26.8522 5.93799 26.5938V5.40625C5.93799 5.14778 6.14827 4.9375 6.40674 4.9375H23.4692C23.7277 4.9375 23.938 5.14778 23.938 5.40625V10.5039C23.938 10.7628 24.1479 10.9727 24.4067 10.9727C24.6656 10.9727 24.8755 10.7628 24.8755 10.5039V5.40625C24.8755 4.63084 24.2446 4 23.4692 4H6.40674C5.63133 4 5.00049 4.63084 5.00049 5.40625V26.5938C5.00049 27.3692 5.63133 28 6.40674 28H23.4692C24.2446 28 24.8755 27.3692 24.8755 26.5938V23.1404C24.8755 22.8815 24.6656 22.6716 24.4067 22.6716Z" fill="black"/>
<path d="M19.2505 10.8437C19.2505 8.46583 17.3159 6.53125 14.938 6.53125C12.5601 6.53125 10.6255 8.46583 10.6255 10.8437C10.6255 12.0774 11.1463 13.1915 11.9793 13.9782C11.9949 13.9949 12.0115 14.0107 12.0297 14.0251C12.7971 14.7272 13.8183 15.1562 14.9379 15.1562C16.0575 15.1562 17.0788 14.7272 17.8462 14.0251C17.8643 14.0107 17.8809 13.9949 17.8965 13.9782C18.7297 13.1915 19.2505 12.0774 19.2505 10.8437ZM14.938 7.46875C16.799 7.46875 18.313 8.98277 18.313 10.8437C18.313 11.5922 18.0678 12.2842 17.6539 12.8445C17.3082 12.3318 16.8291 11.933 16.2728 11.6868C16.4936 11.4015 16.6255 11.0441 16.6255 10.6562V10.3516C16.6255 9.42105 15.8685 8.66406 14.938 8.66406C14.0075 8.66406 13.2505 9.42105 13.2505 10.3516V10.6562C13.2505 11.0441 13.3823 11.4015 13.6031 11.6868C13.0469 11.933 12.5678 12.3318 12.222 12.8445C11.8082 12.2842 11.563 11.5922 11.563 10.8437C11.563 8.98277 13.077 7.46875 14.938 7.46875ZM14.188 10.6562V10.3516C14.188 9.93803 14.5245 9.60156 14.938 9.60156C15.3515 9.60156 15.688 9.93803 15.688 10.3516V10.6562C15.688 11.0698 15.3515 11.4062 14.938 11.4062C14.5245 11.4062 14.188 11.0698 14.188 10.6562ZM12.8993 13.5312C13.3113 12.8006 14.0801 12.3437 14.938 12.3437C15.7958 12.3437 16.5646 12.8006 16.9766 13.5312C16.4098 13.9622 15.7034 14.2187 14.938 14.2187C14.1726 14.2187 13.4662 13.9622 12.8993 13.5312Z" fill="black"/>
<path d="M17.4692 24.5312H14.938C14.6791 24.5312 14.4692 24.7411 14.4692 25C14.4692 25.2589 14.6791 25.4688 14.938 25.4688H17.4692C17.7281 25.4688 17.938 25.2589 17.938 25C17.938 24.7411 17.7281 24.5312 17.4692 24.5312Z" fill="black"/>
<path d="M17.4692 21.9062H10.813C10.5541 21.9062 10.3442 22.1161 10.3442 22.375C10.3442 22.6339 10.5541 22.8438 10.813 22.8438H17.4692C17.7281 22.8438 17.938 22.6339 17.938 22.375C17.938 22.1161 17.7281 21.9062 17.4692 21.9062Z" fill="black"/>
<path d="M17.4692 19.2812H10.813C10.5541 19.2812 10.3442 19.4911 10.3442 19.75C10.3442 20.0089 10.5541 20.2188 10.813 20.2188H17.4692C17.7281 20.2188 17.938 20.0089 17.938 19.75C17.938 19.4911 17.7281 19.2812 17.4692 19.2812Z" fill="black"/>
<path d="M9.14207 16.7936C9.05493 16.7064 8.93399 16.6562 8.81024 16.6562C8.68691 16.6562 8.56598 16.7064 8.47884 16.7936C8.39165 16.8808 8.34149 17.0017 8.34149 17.125C8.34149 17.2483 8.3916 17.3692 8.47884 17.4564C8.56649 17.5436 8.68691 17.5938 8.81024 17.5938C8.93399 17.5938 9.05446 17.5436 9.14207 17.4564C9.22926 17.3692 9.27946 17.2483 9.27946 17.125C9.27946 17.0017 9.2293 16.8808 9.14207 16.7936Z" fill="black"/>
<path d="M9.14207 19.4186C9.05446 19.3314 8.93399 19.2812 8.81024 19.2812C8.68691 19.2812 8.56649 19.3314 8.47884 19.4186C8.39165 19.5058 8.34149 19.6267 8.34149 19.75C8.34149 19.8733 8.3916 19.9942 8.47884 20.0814C8.56649 20.1686 8.68691 20.2188 8.81024 20.2188C8.93399 20.2188 9.05446 20.1686 9.14207 20.0814C9.22926 19.9942 9.27946 19.8733 9.27946 19.75C9.27946 19.6267 9.2293 19.5058 9.14207 19.4186Z" fill="black"/>
<path d="M8.81024 21.9062C8.68691 21.9062 8.56649 21.9564 8.47884 22.0436C8.39165 22.1308 8.34149 22.2517 8.34149 22.375C8.34149 22.4983 8.3916 22.6192 8.47884 22.7064C8.56598 22.7936 8.68691 22.8438 8.81024 22.8438C8.93399 22.8438 9.05493 22.7936 9.14207 22.7064C9.22926 22.6192 9.27946 22.4983 9.27946 22.375C9.27946 22.2517 9.2293 22.1308 9.14207 22.0436C9.05446 21.9564 8.93399 21.9062 8.81024 21.9062Z" fill="black"/>
<path d="M17.4692 16.6562H10.813C10.5541 16.6562 10.3442 16.8661 10.3442 17.125C10.3442 17.3839 10.5541 17.5938 10.813 17.5938H17.4692C17.7281 17.5938 17.938 17.3839 17.938 17.125C17.938 16.8661 17.7281 16.6562 17.4692 16.6562Z" fill="black"/>
<path d="M28.0161 10.1084C27.5607 9.84543 27.0301 9.77559 26.5221 9.91166C26.0142 10.0478 25.5896 10.3736 25.3267 10.829L19.4278 21.046C19.3956 21.102 19.3751 21.1641 19.3679 21.2284L18.9527 24.9476C18.9321 25.1327 19.0229 25.3124 19.1842 25.4056C19.257 25.4476 19.3379 25.4684 19.4185 25.4684C19.5166 25.4684 19.6143 25.4377 19.6965 25.3771L22.7099 23.1578C22.7619 23.1195 22.8055 23.0708 22.8378 23.0148L28.7366 12.7978C29.2794 11.8576 28.9562 10.6512 28.0161 10.1084ZM20.2201 22.0447L21.5768 22.828L20.0033 23.9868L20.2201 22.0447ZM22.2603 22.14L20.4741 21.1088L25.2078 12.9099L26.994 13.9411L22.2603 22.14ZM27.9247 12.329L27.4627 13.1293L25.6765 12.098L26.1386 11.2977C26.2763 11.0592 26.4987 10.8885 26.7647 10.8172C27.0309 10.7459 27.3088 10.7826 27.5473 10.9203C27.7858 11.058 27.9564 11.2804 28.0277 11.5464C28.099 11.8125 28.0625 12.0904 27.9247 12.329Z" fill="black"/>
</g>
<path d="M44.9453 25V8.08984H41.4062V25H44.9453ZM47.8448 25H51.2667V17.793C51.2667 16.1641 52.2394 15.0391 53.7745 15.0391C55.3097 15.0391 56.0831 15.9766 56.0831 17.6172V25H59.505V16.9023C59.505 13.9609 57.9347 12.2031 55.1456 12.2031C53.212 12.2031 51.8878 13.1172 51.2198 14.6758H51.1495V12.4375H47.8448V25ZM62.967 9.54297V12.4375H61.1975V15.0156H62.967V21.6133C62.967 24.0625 64.1155 25.0469 67.0686 25.0469C67.76 25.0469 68.3459 24.9883 68.6975 24.9062V22.3867C68.4866 22.4219 68.1702 22.4453 67.8655 22.4453C66.8577 22.4453 66.3889 21.9883 66.3889 21.0273V15.0156H68.7092V12.4375H66.3889V9.54297H62.967ZM70.9642 25H74.3861V17.9805C74.3861 16.2109 75.3705 15.1797 77.058 15.1797C77.5502 15.1797 78.0189 15.2617 78.3002 15.3789V12.3672C78.0658 12.2969 77.7259 12.2383 77.3275 12.2383C75.8509 12.2383 74.7845 13.1055 74.3392 14.6992H74.2689V12.4375H70.9642V25ZM85.4302 25.2695C89.227 25.2695 91.6528 22.8438 91.6528 18.707C91.6528 14.6289 89.1919 12.168 85.4302 12.168C81.6684 12.168 79.2075 14.6406 79.2075 18.707C79.2075 22.832 81.6333 25.2695 85.4302 25.2695ZM85.4302 22.6562C83.7427 22.6562 82.6763 21.2383 82.6763 18.7188C82.6763 16.2227 83.7661 14.7812 85.4302 14.7812C87.0942 14.7812 88.1723 16.2227 88.1723 18.7188C88.1723 21.2383 87.1059 22.6562 85.4302 22.6562ZM98.4664 25.1992C100.318 25.1992 101.771 24.2266 102.38 22.8438H102.439V25H105.814V8.08984H102.392V14.5938H102.322C101.713 13.1992 100.306 12.2383 98.4898 12.2383C95.3375 12.2383 93.3453 14.7109 93.3453 18.6953C93.3453 22.7148 95.3258 25.1992 98.4664 25.1992ZM99.6266 14.9805C101.326 14.9805 102.416 16.4336 102.416 18.7188C102.416 21.0156 101.326 22.4453 99.6266 22.4453C97.9039 22.4453 96.8492 21.0273 96.8492 18.7188C96.8492 16.4219 97.9039 14.9805 99.6266 14.9805ZM120.081 12.4375H116.659V19.6328C116.659 21.2969 115.71 22.3867 114.186 22.3867C112.675 22.3867 111.842 21.4961 111.842 19.8203V12.4375H108.421V20.5352C108.421 23.4648 110.225 25.2344 112.944 25.2344C114.842 25.2344 116.085 24.3203 116.706 22.7383H116.776V25H120.081V12.4375ZM134.101 17.1133C133.949 14.2656 131.793 12.168 128.394 12.168C124.633 12.168 122.23 14.6758 122.23 18.707C122.23 22.8086 124.633 25.2695 128.418 25.2695C131.723 25.2695 133.937 23.3594 134.113 20.3945H130.926C130.715 21.7656 129.824 22.5859 128.453 22.5859C126.754 22.5859 125.699 21.1797 125.699 18.707C125.699 16.2812 126.754 14.8516 128.441 14.8516C129.848 14.8516 130.726 15.7891 130.926 17.1133H134.101ZM137.06 9.54297V12.4375H135.29V15.0156H137.06V21.6133C137.06 24.0625 138.208 25.0469 141.161 25.0469C141.853 25.0469 142.438 24.9883 142.79 24.9062V22.3867C142.579 22.4219 142.263 22.4453 141.958 22.4453C140.95 22.4453 140.481 21.9883 140.481 21.0273V15.0156H142.802V12.4375H140.481V9.54297H137.06ZM146.815 10.7383C147.811 10.7383 148.596 9.94141 148.596 8.98047C148.596 8.00781 147.811 7.22266 146.815 7.22266C145.818 7.22266 145.033 8.00781 145.033 8.98047C145.033 9.94141 145.818 10.7383 146.815 10.7383ZM145.115 25H148.537V12.4375H145.115V25ZM156.968 25.2695C160.765 25.2695 163.191 22.8438 163.191 18.707C163.191 14.6289 160.73 12.168 156.968 12.168C153.206 12.168 150.745 14.6406 150.745 18.707C150.745 22.832 153.171 25.2695 156.968 25.2695ZM156.968 22.6562C155.28 22.6562 154.214 21.2383 154.214 18.7188C154.214 16.2227 155.304 14.7812 156.968 14.7812C158.632 14.7812 159.71 16.2227 159.71 18.7188C159.71 21.2383 158.644 22.6562 156.968 22.6562ZM165.34 25H168.762V17.793C168.762 16.1641 169.735 15.0391 171.27 15.0391C172.805 15.0391 173.578 15.9766 173.578 17.6172V25H177V16.9023C177 13.9609 175.43 12.2031 172.641 12.2031C170.707 12.2031 169.383 13.1172 168.715 14.6758H168.645V12.4375H165.34V25Z" fill="#110725"/>
<path d="M334.294 14.7056C334.684 14.3158 335.318 14.3179 335.706 14.7059L335.794 14.7937C336.184 15.1837 336.186 15.8133 335.792 16.2078L330.708 21.2918C330.317 21.6828 329.686 21.6863 329.292 21.2918L324.208 16.2078C323.817 15.8168 323.818 15.1817 324.206 14.7937L324.294 14.7059C324.684 14.3159 325.313 14.3126 325.706 14.7056L330 18.9998L334.294 14.7056Z" fill="#110725"/>
<g opacity="0.2">
<path fill-rule="evenodd" clip-rule="evenodd" d="M0 43.5H343V44H0V43.5Z" fill="black"/>
</g>
<defs>
<clipPath id="clip0">
<rect width="24" height="24" fill="white" transform="translate(5 4)"/>
</clipPath>
</defs>
</svg>
