<svg width="32" height="32" viewBox="0 0 32 32" fill="none" xmlns="http://www.w3.org/2000/svg">
<rect width="32" height="32" rx="5" fill="#C96464"/>
<path d="M13.7725 21.5059L15.8088 22.4584L13.75 26.8759L13.2063 25.3796L11.71 25.9234L13.7725 21.5059Z" fill="#FFDA44"/>
<path d="M18.7937 25.3796L18.2499 26.8759L16.1912 22.4584L18.2274 21.5059L20.2899 25.9234L18.7937 25.3796Z" fill="#FFDA44"/>
<path d="M8.125 5.125H23.875V23.125H8.125V5.125Z" fill="#FFDAAA"/>
<path d="M16 23.5C18.4853 23.5 20.5 21.4853 20.5 19C20.5 16.5147 18.4853 14.5 16 14.5C13.5147 14.5 11.5 16.5147 11.5 19C11.5 21.4853 13.5147 23.5 16 23.5Z" fill="#00D7DF"/>
<path d="M18.4936 17.9642C18.6436 18.3205 19.2999 18.5942 19.2999 18.9992C19.2999 19.4042 18.6436 19.678 18.4936 20.0342C18.3436 20.398 18.6099 21.058 18.3324 21.3317C18.0549 21.6055 17.3986 21.343 17.0349 21.493C16.6786 21.643 16.4049 22.2992 15.9999 22.2992C15.5949 22.2992 15.3211 21.643 14.9649 21.493C14.6011 21.343 13.9411 21.6092 13.6674 21.3317C13.3936 21.0542 13.6561 20.398 13.5061 20.0342C13.3561 19.678 12.6999 19.4042 12.6999 18.9992C12.6999 18.5942 13.3561 18.3205 13.5061 17.9642C13.6561 17.6005 13.3899 16.9405 13.6674 16.6667C13.9449 16.393 14.6011 16.6555 14.9649 16.5055C15.3211 16.3555 15.5949 15.6992 15.9999 15.6992C16.4049 15.6992 16.6786 16.3555 17.0349 16.5055C17.3986 16.6555 18.0586 16.3892 18.3324 16.6667C18.6061 16.9442 18.3436 17.6005 18.4936 17.9642Z" fill="#CE4623"/>
<path d="M15.3439 23.4522L13.7501 26.8759L13.2064 25.3797L14.2451 23.1484C14.5966 23.2971 14.9659 23.3993 15.3439 23.4522Z" fill="#BFA433"/>
<path d="M17.755 23.1484L18.7938 25.3797L18.25 26.8759L16.6562 23.4522C17.0342 23.3993 17.4036 23.2971 17.755 23.1484Z" fill="#BFA433"/>
<path d="M23.875 4.75H8.125C8.02554 4.75 7.93016 4.78951 7.85984 4.85983C7.78951 4.93016 7.75 5.02554 7.75 5.125V23.125C7.75 23.2245 7.78951 23.3198 7.85984 23.3902C7.93016 23.4605 8.02554 23.5 8.125 23.5H12.4262L11.3687 25.765C11.3376 25.8322 11.327 25.9072 11.3384 25.9805C11.3499 26.0537 11.3827 26.1219 11.4329 26.1765C11.483 26.2311 11.5482 26.2695 11.6203 26.2871C11.6923 26.3046 11.7679 26.3004 11.8375 26.275L12.9813 25.8587L13.3975 27.0025C13.4231 27.0724 13.4688 27.1332 13.5288 27.1773C13.5889 27.2213 13.6606 27.2466 13.735 27.25H13.75C13.8217 27.2502 13.892 27.2298 13.9525 27.1912C14.013 27.1527 14.0611 27.0976 14.0912 27.0325L15.5688 23.8525C15.8555 23.8825 16.1445 23.8825 16.4313 23.8525L17.9088 27.0325C17.9389 27.0976 17.987 27.1527 18.0475 27.1912C18.108 27.2298 18.1783 27.2502 18.25 27.25H18.265C18.3394 27.2466 18.4111 27.2213 18.4712 27.1773C18.5312 27.1332 18.5769 27.0724 18.6025 27.0025L19.0187 25.8587L20.1625 26.275C20.2321 26.3004 20.3077 26.3046 20.3797 26.2871C20.4518 26.2695 20.517 26.2311 20.5671 26.1765C20.6173 26.1219 20.6501 26.0537 20.6616 25.9805C20.673 25.9072 20.6624 25.8322 20.6312 25.765L19.5737 23.5H23.875C23.9745 23.5 24.0698 23.4605 24.1402 23.3902C24.2105 23.3198 24.25 23.2245 24.25 23.125V5.125C24.25 5.02554 24.2105 4.93016 24.1402 4.85983C24.0698 4.78951 23.9745 4.75 23.875 4.75ZM12.9325 25.0788L12.4338 25.2625L13.4275 23.1325C13.5325 23.2 13.6413 23.2638 13.75 23.32L12.9325 25.0788ZM13.7913 25.8962L13.6112 25.3975L14.44 23.6163C14.56 23.6538 14.68 23.6912 14.8038 23.7213L13.7913 25.8962ZM16 23.125C15.1842 23.125 14.3866 22.8831 13.7083 22.4298C13.0299 21.9766 12.5012 21.3323 12.189 20.5786C11.8768 19.8248 11.7951 18.9954 11.9543 18.1953C12.1134 17.3951 12.5063 16.6601 13.0832 16.0832C13.6601 15.5063 14.3951 15.1134 15.1953 14.9543C15.9954 14.7951 16.8248 14.8768 17.5786 15.189C18.3323 15.5012 18.9766 16.0299 19.4298 16.7083C19.8831 17.3866 20.125 18.1842 20.125 19C20.1243 20.0938 19.6895 21.1426 18.916 21.916C18.1426 22.6895 17.0938 23.1243 16 23.125ZM18.2087 25.8962L17.1962 23.7213C17.32 23.6912 17.44 23.6538 17.56 23.6163L18.3888 25.3975L18.2087 25.8962ZM19.0675 25.0788L18.25 23.32C18.3588 23.2638 18.4675 23.2 18.5725 23.1325L19.5662 25.2625L19.0675 25.0788ZM23.5 22.75H19.2213L19.1875 22.6788C19.9399 22.0286 20.4755 21.1638 20.7224 20.2006C20.9692 19.2373 20.9157 18.2216 20.5688 17.2896C20.2219 16.3577 19.5983 15.5541 18.7817 14.9867C17.965 14.4193 16.9944 14.1152 16 14.1152C15.0056 14.1152 14.035 14.4193 13.2183 14.9867C12.4017 15.5541 11.7781 16.3577 11.4312 17.2896C11.0843 18.2216 11.0308 19.2373 11.2776 20.2006C11.5245 21.1638 12.0601 22.0286 12.8125 22.6788L12.7787 22.75H8.5V5.5H23.5V22.75Z" fill="black"/>
<path d="M19.1199 18.1105C19.0128 18.0293 18.9192 17.9319 18.8424 17.8217C18.8149 17.6834 18.8111 17.5413 18.8311 17.4017C18.8657 17.2279 18.8628 17.0487 18.8227 16.8761C18.7826 16.7034 18.7062 16.5413 18.5986 16.4005C18.4585 16.2929 18.297 16.2165 18.125 16.1764C17.953 16.1363 17.7744 16.1334 17.6011 16.168C17.4603 16.1881 17.317 16.1843 17.1774 16.1567C17.0681 16.0788 16.9708 15.9853 16.8886 15.8792C16.7903 15.7272 16.6597 15.5986 16.5061 15.5027C16.3525 15.4068 16.1797 15.3458 15.9999 15.3242C15.8201 15.3458 15.6473 15.4068 15.4937 15.5027C15.3401 15.5986 15.2095 15.7272 15.1111 15.8792C15.029 15.9853 14.9317 16.0788 14.8224 16.1567C14.6828 16.1843 14.5395 16.1881 14.3986 16.168C14.2254 16.1334 14.0468 16.1363 13.8748 16.1764C13.7027 16.2165 13.5413 16.2929 13.4011 16.4005C13.2935 16.5413 13.2171 16.7034 13.1771 16.8761C13.137 17.0487 13.1341 17.2279 13.1686 17.4017C13.1887 17.5413 13.1849 17.6834 13.1574 17.8217C13.0806 17.9319 12.9869 18.0293 12.8799 18.1105C12.7278 18.2088 12.5993 18.3394 12.5034 18.493C12.4074 18.6466 12.3465 18.8194 12.3249 18.9992C12.3465 19.179 12.4074 19.3518 12.5034 19.5054C12.5993 19.659 12.7278 19.7896 12.8799 19.888C12.9869 19.9691 13.0806 20.0665 13.1574 20.1767C13.1849 20.3151 13.1887 20.4571 13.1686 20.5967C13.1341 20.7706 13.137 20.9497 13.1771 21.1224C13.2171 21.295 13.2935 21.4571 13.4011 21.598C13.5413 21.7055 13.7027 21.7819 13.8748 21.822C14.0468 21.8621 14.2254 21.865 14.3986 21.8305C14.5395 21.8103 14.6828 21.8141 14.8224 21.8417C14.9317 21.9196 15.029 22.0131 15.1111 22.1192C15.2095 22.2713 15.3401 22.3998 15.4937 22.4958C15.6473 22.5917 15.8201 22.6526 15.9999 22.6742C16.1797 22.6526 16.3525 22.5917 16.5061 22.4958C16.6597 22.3998 16.7903 22.2713 16.8886 22.1192C16.9708 22.0131 17.0681 21.9196 17.1774 21.8417C17.317 21.8141 17.4603 21.8103 17.6011 21.8305C17.7744 21.865 17.953 21.8621 18.125 21.822C18.297 21.7819 18.4585 21.7055 18.5986 21.598C18.7062 21.4571 18.7826 21.295 18.8227 21.1224C18.8628 20.9497 18.8657 20.7706 18.8311 20.5967C18.8111 20.4571 18.8149 20.3151 18.8424 20.1767C18.9192 20.0665 19.0128 19.9691 19.1199 19.888C19.272 19.7896 19.4005 19.659 19.4964 19.5054C19.5923 19.3518 19.6533 19.179 19.6749 18.9992C19.6533 18.8194 19.5923 18.6466 19.4964 18.493C19.4005 18.3394 19.272 18.2088 19.1199 18.1105ZM18.6249 19.3255C18.4245 19.4733 18.2614 19.666 18.1486 19.888C18.0686 20.132 18.0455 20.3911 18.0811 20.6455C18.0994 20.7852 18.0956 20.9269 18.0699 21.0655C17.9305 21.0945 17.7872 21.0996 17.6461 21.0805C17.3918 21.0467 17.133 21.0698 16.8886 21.148C16.6666 21.2608 16.474 21.4239 16.3261 21.6242C16.2474 21.7142 16.0636 21.9242 15.9999 21.9242C15.9361 21.9242 15.7524 21.7142 15.6736 21.6242C15.5258 21.4239 15.3332 21.2608 15.1111 21.148C14.9593 21.0901 14.7973 21.0633 14.6349 21.0692C14.5374 21.0692 14.4436 21.073 14.3536 21.0805C14.2139 21.0987 14.0722 21.0949 13.9336 21.0692C13.9046 20.9299 13.8995 20.7865 13.9186 20.6455C13.9543 20.3911 13.9312 20.132 13.8511 19.888C13.7383 19.666 13.5753 19.4733 13.3749 19.3255C13.2849 19.2467 13.0749 19.063 13.0749 18.9992C13.0749 18.9355 13.2849 18.7517 13.3749 18.673C13.5753 18.5251 13.7383 18.3325 13.8511 18.1105C13.9312 17.8664 13.9543 17.6073 13.9186 17.353C13.9004 17.2132 13.9042 17.0715 13.9299 16.933C14.0693 16.9039 14.2126 16.8988 14.3536 16.918C14.608 16.9536 14.8671 16.9305 15.1111 16.8505C15.3332 16.7377 15.5258 16.5746 15.6736 16.3742C15.7524 16.2842 15.9361 16.0742 15.9999 16.0742C16.0636 16.0742 16.2474 16.2842 16.3261 16.3742C16.474 16.5746 16.6666 16.7377 16.8886 16.8505C17.1327 16.9305 17.3918 16.9536 17.6461 16.918C17.7859 16.8997 17.9276 16.9035 18.0661 16.9292C18.0952 17.0686 18.1003 17.2119 18.0811 17.353C18.0455 17.6073 18.0686 17.8664 18.1486 18.1105C18.2614 18.3325 18.4245 18.5251 18.6249 18.673C18.7149 18.7517 18.9249 18.9355 18.9249 18.9992C18.9249 19.063 18.7149 19.2467 18.6249 19.3255Z" fill="black"/>
<path d="M14.125 6.625H17.875V7.375H14.125V6.625Z" fill="black"/>
<path d="M10 8.875H22V9.625H10V8.875Z" fill="black"/>
<path d="M10 11.125H22V11.875H10V11.125Z" fill="black"/>
</svg>
