<svg width="18" height="16" viewBox="0 0 18 16" fill="none" xmlns="http://www.w3.org/2000/svg">
<path d="M0.287727 8.70029L6.78815 15.2009C6.97371 15.3864 7.22103 15.4883 7.48473 15.4883C7.74873 15.4883 7.9959 15.3863 8.18146 15.2009L8.77165 14.6105C8.95706 14.4253 9.05921 14.1778 9.05921 13.914C9.05921 13.6502 8.95706 13.3944 8.77165 13.2092L4.97939 9.40858L17.0276 9.40858C17.5708 9.40858 18 8.98331 18 8.43995V7.60537C18 7.06201 17.5708 6.59387 17.0276 6.59387L4.93637 6.59387L8.7715 2.77205C8.95691 2.58649 9.05906 2.34576 9.05906 2.0819C9.05906 1.81835 8.95691 1.5741 8.7715 1.38869L8.18131 0.800257C7.99575 0.614697 7.74858 0.513577 7.48459 0.513577C7.22088 0.513577 6.97357 0.616014 6.78801 0.801575L0.28758 7.30201C0.101582 7.48815 -0.000709534 7.73664 2.28882e-05 8.00078C-0.000562668 8.2658 0.101582 8.51444 0.287727 8.70029Z" fill="#110725"/>
</svg>
