<svg width="32" height="32" viewBox="0 0 32 32" fill="none" xmlns="http://www.w3.org/2000/svg">
<rect width="32" height="32" rx="5" fill="#6298FA"/>
<path d="M7.36668 25.6033L5.07013 12.5646C5.04796 12.4388 5.03413 12.3116 5.02875 12.1839C4.99462 10.7057 6.05607 9.4288 7.51565 9.19222L11.9474 8.41016L11.8274 25.6033H7.36668Z" fill="#35495E"/>
<path d="M24.4232 25.0317C24.3463 25.3508 24.0882 25.5943 23.7653 25.6524L10.7225 27.9531C9.90041 28.0966 9.05633 27.8791 8.40591 27.3563C7.7555 26.8334 7.36175 26.0558 7.32526 25.2221C7.29266 23.8087 8.26572 22.5703 9.64664 22.2676L13.3004 23.2938H13.2963L10.0066 23.8772C9.63975 23.9417 9.32109 24.1673 9.13835 24.4919C8.9556 24.8165 8.92802 25.206 9.06319 25.5531C9.29724 26.1122 9.89167 26.4301 10.4866 26.3145L20.4549 24.5559L24.4232 25.0317Z" fill="#2C3E50"/>
<path d="M13.2961 23.2949L10.0065 23.8784C9.63957 23.9429 9.32092 24.1684 9.13818 24.4931C8.95543 24.8177 8.92785 25.2071 9.06302 25.5542C9.29707 26.1133 9.8915 26.4313 10.4865 26.3156L20.4547 24.557L13.2961 23.2949Z" fill="#F9EAB0"/>
<path d="M10.3073 17.7252L12.6067 4.68494C12.689 4.2367 13.1161 3.93771 13.5655 4.01377L26.5077 6.29584C27.9683 6.5326 29.0306 7.81032 28.9966 9.28963C28.991 9.41673 28.9772 9.54334 28.9553 9.66866L26.6558 22.7089L10.3073 17.7252Z" fill="#E64C3C"/>
<path d="M23.8016 8.33385C23.7774 8.33384 23.7532 8.33176 23.7292 8.32765L14.3564 6.67495C14.1449 6.62279 14.01 6.41556 14.048 6.20104C14.086 5.98652 14.2838 5.8382 14.5004 5.86185L23.8728 7.51247C24.0842 7.5495 24.2322 7.74198 24.2137 7.95578C24.1951 8.16958 24.0162 8.33373 23.8016 8.33385Z" fill="#3F5C6C"/>
<path d="M21.8122 10.082C21.7879 10.082 21.7637 10.0798 21.7398 10.0753L15.6273 8.99907C15.4073 8.95447 15.2631 8.74271 15.302 8.52171C15.3409 8.30072 15.5489 8.15105 15.7709 8.18431L21.8838 9.26017C22.0964 9.2961 22.2458 9.48928 22.2271 9.70409C22.2084 9.9189 22.0279 10.0833 21.8122 10.082Z" fill="#3F5C6C"/>
<path d="M22.6761 11.9297L14.1168 10.4177C13.8917 10.3779 13.677 10.5282 13.6372 10.7533L12.9172 14.8292C12.8775 15.0543 13.0277 15.269 13.2528 15.3087L21.8121 16.8207C22.0372 16.8605 22.2519 16.7103 22.2917 16.4852L23.0117 12.4093C23.0515 12.1842 22.9012 11.9695 22.6761 11.9297Z" fill="#ECF0F1"/>
<path d="M28.9955 9.2877C28.9906 9.41541 28.9768 9.54261 28.9542 9.66839L26.6535 22.707L23.4631 21.7346L25.3128 11.2491L25.7514 8.7746L26.1983 6.24219L26.5086 6.29598C27.9676 6.53372 29.0284 7.80991 28.9955 9.2877Z" fill="#C03A2B"/>
<path d="M24.2081 19.3354L11.2647 17.0554C11.2169 17.0471 11.1684 17.043 11.1199 17.043C10.691 17.0441 10.334 17.3726 10.2974 17.7999C10.2608 18.2273 10.5567 18.6117 10.9792 18.6857L24.0178 20.9823C24.3844 21.0487 24.702 21.2755 24.8838 21.6006C25.0656 21.9258 25.0925 22.3152 24.9571 22.6623C24.7243 23.2201 24.1308 23.5368 23.5378 23.4195L10.5488 21.1312C10.501 21.123 10.4525 21.1189 10.404 21.1188C9.97433 21.1178 9.61531 21.4457 9.57758 21.8737C9.53984 22.3018 9.83594 22.6875 10.2592 22.7616L23.3019 25.0581C24.1234 25.2022 24.9671 24.9854 25.6176 24.4634C26.268 23.9413 26.6621 23.1644 26.6992 22.3312C26.7317 20.8513 25.6692 19.5735 24.2081 19.3354Z" fill="#802F34"/>
<path d="M24.9572 22.6621C24.7244 23.22 24.1309 23.5366 23.5379 23.4193L10.549 21.1311L10.9793 18.6855L24.0179 20.9821C24.3845 21.0485 24.7022 21.2753 24.884 21.6005C25.0658 21.9256 25.0926 22.3151 24.9572 22.6621Z" fill="#F9EAB0"/>
</svg>
