<svg id="Capa_1" data-name="Capa 1" xmlns="http://www.w3.org/2000/svg" xmlns:xlink="http://www.w3.org/1999/xlink" viewBox="0 0 248.51 242.92"><defs><style>.cls-1{fill:url(#Degradado_sin_nombre_23);}.cls-2{fill:url(#Degradado_sin_nombre_27);}.cls-3{fill:url(#Degradado_sin_nombre_26);}.cls-4{fill:url(#Degradado_sin_nombre_24);}.cls-5{fill:url(#Degradado_sin_nombre_25);}</style><linearGradient id="Degradado_sin_nombre_23" x1="6.74" y1="123.11" x2="241.77" y2="123.11" gradientUnits="userSpaceOnUse"><stop offset="0" stop-color="#eaa675"/><stop offset="1" stop-color="#ea7d75"/></linearGradient><linearGradient id="Degradado_sin_nombre_27" x1="184.6" y1="207.8" x2="241.59" y2="207.8" gradientUnits="userSpaceOnUse"><stop offset="0" stop-color="#eaa675"/><stop offset="1" stop-color="#ea7d75"/></linearGradient><linearGradient id="Degradado_sin_nombre_26" x1="7.08" y1="205.55" x2="63.08" y2="205.55" xlink:href="#Degradado_sin_nombre_23"/><linearGradient id="Degradado_sin_nombre_24" x1="7.1" y1="35.75" x2="62.87" y2="35.75" xlink:href="#Degradado_sin_nombre_23"/><linearGradient id="Degradado_sin_nombre_25" x1="185.29" y1="33.15" x2="240.9" y2="33.15" xlink:href="#Degradado_sin_nombre_23"/></defs><path class="cls-1" d="M207.1,148.58c7.26.36,14.54.09,21.81.06,8.32,0,12.27-3.66,12.56-11.92,0-.13,0-.26,0-.39,0-.39,0-.8,0-1.21a125.5,125.5,0,0,0,0-14.77c0-5.16.12-10.33-.05-15.48-.23-7-4.43-11.06-11.37-11.1-11.17-.08-22.35,0-33.52,0-8.39,0-11.77,3.24-11.9,11.66q-.11,6.31-.1,12.63c-.94,14.82-8,26.05-18.25,36.44S145.58,177.08,130.65,180c-13.75,2.71-28.42-1.23-38.17-11.5-2.16-2.27-3.83-4.76-1.1-7.32,5.06-4.74,10.13-9.5,15.36-14.06,5.49-4.79,11.92-6.56,19.28-6.29a198.6,198.6,0,0,0,23.65-.59c6.8-.56,9.47-2.89,10.1-8.86a22.62,22.62,0,0,0,.39-4.31c0-4.57,0-9.15,0-13.72,0-5.37.14-10.73,0-16.09-.23-7-4.43-11.06-11.37-11.1h-3.36c-.57-.06-1.14-.1-1.72-.11q-14.94-.15-29.88,0c-6.6,0-10.58,4-10.68,10.58,0,3.31.07,6.63.13,10q0,3.1,0,6.22c0,1.72-.16,3.44-.36,5.14-.68,5.83-1.76,12.33-4.94,17-4.66,6.81-11.34,12.22-17.17,18.23-2,2.1-3.58,1.13-5-.82-5.34-7.4-13.07-14.32-13.45-24.09-.24-6.09-.66-12.36.87-18.33,1.26-4.94,4.37-9.25,7.65-13.08,6.77-7.92,15.36-14,22.43-21.63,6.54-7,14.14-11.21,23.12-12.4,8.14.15,16.29.09,24.42-.24,8.31-.34,11.68-4.57,11.73-12.92,0-4.58,0-9.15,0-13.73,0-5.36.13-10.73-.05-16.09-.23-7-4.43-11-11.37-11.1-11.17-.07-22.34,0-33.52,0A16.88,16.88,0,0,0,101,9.81a6.36,6.36,0,0,0-3.87,3.59,15.78,15.78,0,0,0-1.4,7c-.12,7.47-.13,14.95-.07,22.42-1.13,7.32-3.86,13.81-9.82,19.1-8.48,7.52-16.37,15.62-24.29,23.72-3.93,4-8.38,7.58-14.2,8.06-9.11.74-18.28.74-27.43.92-8.72.16-12.2,2.42-12.71,11.15-.69,11.78-.43,23.65,0,35.46.26,6.75,3.69,9.28,10.63,9.32,8.22.05,16.44-.09,24.66,0,7.35.11,14,2.32,19.33,7.56,8.59,8.39,17.25,16.71,25.7,25.22a22.7,22.7,0,0,1,7.08,17c-.18,7.89-.09,15.8,0,23.7a15.8,15.8,0,0,0,1.78,7.91c1.83,3.27,5.13,5.17,9.84,5.34,11.19.42,22.41.48,33.6,0,8.3-.34,11.68-4.57,11.72-12.93,0-1.81,0-3.63,0-5.44.19-5.13.16-10.27,0-15.4,0-2,0-4,0-6a25,25,0,0,1,8.11-16.88C172.58,168.28,187.21,147.59,207.1,148.58Z"/><path class="cls-2" d="M241.5,191.85c-.23-7-4.43-11.06-11.37-11.1-11.17-.08-22.35-.05-33.52,0-8.39,0-11.77,3.24-11.9,11.66-.16,9.93-.13,19.87,0,29.81.11,7.5,4,12.07,11.49,12.35,11.19.42,22.42.47,33.6,0,8.31-.35,11.68-4.58,11.73-12.93,0-4.58,0-9.15,0-13.72C241.54,202.57,241.68,197.21,241.5,191.85Z"/><path class="cls-3" d="M49.7,178.06c-11,.08-22.07.5-33.11.83-6.33.19-9.23,3-9.42,9.36-.18,5.84,0,11.68,0,17.53,0,5.36-.06,10.73,0,16.1.09,6.65,3.35,10.73,9.84,10.93,12,.35,24,.29,36,0,5.54-.14,9.06-3,9.23-7.15.51-11.81,1.11-23.65.76-35.45C62.7,180.94,59,178,49.7,178.06Z"/><path class="cls-4" d="M16.34,62.37c6.14.15,12.3,0,18.45,0v0c5.52,0,11.05,0,16.57,0,8.32-.09,10.69-2.37,11.11-10.51.07-1.42.41-2.83.4-4.24-.08-10.38.12-20.78-.46-31.13-.28-5-3.72-7.41-8.71-7.43C41.24,9,28.77,9,16.31,9.15c-6.08.06-9.06,3-9.13,9.07q-.18,17.49,0,35C7.29,59.21,10.36,62.22,16.34,62.37Z"/><circle class="cls-5" cx="213.1" cy="33.15" r="27.81"/></svg>