<svg id="Capa_1" data-name="Capa 1" xmlns="http://www.w3.org/2000/svg" xmlns:xlink="http://www.w3.org/1999/xlink" viewBox="0 0 175 24"><defs><style>.cls-1{fill:#fff;}.cls-2{fill:url(#Degradado_sin_nombre_23);}.cls-3{fill:url(#Degradado_sin_nombre_27);}.cls-4{fill:url(#Degradado_sin_nombre_23-2);}.cls-5{fill:url(#Degradado_sin_nombre_23-3);}.cls-6{fill:url(#Degradado_sin_nombre_23-4);}</style><linearGradient id="Degradado_sin_nombre_23" x1="1.42" y1="12.17" x2="25.03" y2="12.17" gradientUnits="userSpaceOnUse"><stop offset="0" stop-color="#eaa675"/><stop offset="1" stop-color="#ea7d75"/></linearGradient><linearGradient id="Degradado_sin_nombre_27" x1="19.29" y1="20.68" x2="25.02" y2="20.68" gradientUnits="userSpaceOnUse"><stop offset="0" stop-color="#eaa675"/><stop offset="1" stop-color="#ea7d75"/></linearGradient><linearGradient id="Degradado_sin_nombre_23-2" x1="1.45" y1="20.45" x2="7.08" y2="20.45" xlink:href="#Degradado_sin_nombre_23"/><linearGradient id="Degradado_sin_nombre_23-3" x1="1.46" y1="3.39" x2="7.06" y2="3.39" xlink:href="#Degradado_sin_nombre_23"/><linearGradient id="Degradado_sin_nombre_23-4" x1="19.36" y1="3.13" x2="24.95" y2="3.13" xlink:href="#Degradado_sin_nombre_23"/></defs><path class="cls-1" d="M49,19.4H38.87V13.69H48.4V10.05H38.87V4.59H49V.68H34.21V23.32H49Z"/><path class="cls-1" d="M52.34.68V23.32h8.52c6.69,0,10.63-4.22,10.63-11.41S67.55.68,60.86.68ZM57,4.59H60.3c4.11,0,6.43,2.6,6.43,7.34,0,4.89-2.26,7.47-6.43,7.47H57Z"/><path class="cls-1" d="M79.16.68H74.5V15.32c0,5,3.63,8.38,9.35,8.38s9.33-3.39,9.33-8.38V.68H88.51V14.85c0,2.9-1.68,4.8-4.66,4.8s-4.69-1.9-4.69-4.8Z"/><path class="cls-1" d="M105.63,23.32c4.74,0,7.56-2.37,7.56-6.35a5.39,5.39,0,0,0-5-5.57v-.13a5,5,0,0,0,3.85-4.94c0-3.39-2.58-5.65-6.4-5.65H97.21V23.32ZM100,3.18h5c2.7,0,4.22,1.23,4.22,3.48,0,2.45-1.8,3.78-5.09,3.78H100Zm0,17.64v-8h5c3.55,0,5.38,1.33,5.38,4s-1.76,4-5.12,4Z"/><path class="cls-1" d="M129.87,20.78H119.12V.68h-2.78V23.32h13.53Z"/><path class="cls-1" d="M141.41.3C135.09.3,131.14,4.82,131.14,12s4,11.69,10.27,11.69S151.69,19.19,151.69,12,147.73.3,141.41.3Zm0,2.61c4.56,0,7.42,3.51,7.42,9.1s-2.86,9.08-7.42,9.08S134,17.58,134,12,136.85,2.91,141.41,2.91Z"/><path class="cls-1" d="M164.32,23.7c4.93,0,8.24-2.5,9.26-7h-2.81c-.81,2.76-3.15,4.36-6.43,4.36-4.4,0-7.2-3.54-7.2-9.1s2.83-9.08,7.18-9.08a6.39,6.39,0,0,1,6.45,4.91h2.81C172.87,3.3,169.18.3,164.32.3c-6.1,0-10,4.59-10,11.69S158.18,23.7,164.32,23.7Z"/><path class="cls-2" d="M21.55,14.72c.73,0,1.46,0,2.19,0S25,14.36,25,13.53v-.16a12.18,12.18,0,0,0,0-1.48c0-.52,0-1,0-1.56a1.06,1.06,0,0,0-1.14-1.11H20.5c-.84,0-1.18.32-1.2,1.17,0,.42,0,.85,0,1.27a5.55,5.55,0,0,1-1.83,3.66c-1,1-2.09,2.27-3.59,2.56A4.14,4.14,0,0,1,10,16.73c-.22-.23-.39-.48-.12-.74.51-.47,1-1,1.55-1.41A2.65,2.65,0,0,1,13.41,14a20.84,20.84,0,0,0,2.37-.06c.68-.06,1-.29,1-.89a2.74,2.74,0,0,0,0-.43V11.19c0-.54,0-1.08,0-1.62a1,1,0,0,0-1.14-1.11h-.34l-.17,0h-3A1,1,0,0,0,11.1,9.5c0,.34,0,.67,0,1s0,.42,0,.63a4.36,4.36,0,0,1,0,.51,3.92,3.92,0,0,1-.5,1.71,15.61,15.61,0,0,1-1.72,1.83c-.21.21-.36.11-.5-.08C7.82,14.36,7,13.66,7,12.68a6.68,6.68,0,0,1,.09-1.84,3.45,3.45,0,0,1,.77-1.32c.68-.79,1.54-1.4,2.25-2.17A3.77,3.77,0,0,1,12.44,6.1c.82,0,1.63,0,2.45,0s1.17-.46,1.18-1.3V3.4c0-.54,0-1.08,0-1.61A1.05,1.05,0,0,0,14.92.67c-1.12,0-2.24,0-3.37,0a1.75,1.75,0,0,0-.66.11.63.63,0,0,0-.39.36,1.55,1.55,0,0,0-.14.7c0,.75,0,1.5,0,2.25A3,3,0,0,1,9.36,6c-.85.76-1.64,1.57-2.44,2.39a2.31,2.31,0,0,1-1.42.81c-.92.07-1.84.07-2.76.09s-1.23.24-1.28,1.12a35.23,35.23,0,0,0,0,3.56c0,.68.37.93,1.06.94H5A2.7,2.7,0,0,1,7,15.68c.87.84,1.74,1.68,2.59,2.53a2.32,2.32,0,0,1,.71,1.71c0,.79,0,1.59,0,2.38a1.63,1.63,0,0,0,.18.8,1.09,1.09,0,0,0,1,.53c1.12.05,2.25.05,3.37,0,.84,0,1.18-.45,1.18-1.29v-.55c0-.52,0-1,0-1.55,0-.2,0-.4,0-.6a2.55,2.55,0,0,1,.82-1.7C18.08,16.7,19.55,14.63,21.55,14.72Z"/><path class="cls-3" d="M25,19.07A1.06,1.06,0,0,0,23.87,18c-1.13,0-2.25,0-3.37,0-.84,0-1.18.32-1.2,1.17,0,1,0,2,0,3a1.11,1.11,0,0,0,1.16,1.24c1.12.05,2.25.05,3.37,0,.84,0,1.18-.46,1.18-1.3,0-.46,0-.92,0-1.38S25,19.61,25,19.07Z"/><path class="cls-4" d="M5.74,17.69c-1.11,0-2.22,0-3.33.08a.84.84,0,0,0-1,.94c0,.59,0,1.17,0,1.76s0,1.08,0,1.62a1,1,0,0,0,1,1.1c1.21,0,2.41,0,3.62,0,.55,0,.91-.3.93-.72,0-1.19.11-2.38.07-3.56C7,18,6.67,17.68,5.74,17.69Z"/><path class="cls-5" d="M2.38,6.06c.62,0,1.24,0,1.86,0H5.9C6.74,6.06,7,5.83,7,5c0-.14,0-.28,0-.42,0-1,0-2.09,0-3.13A.76.76,0,0,0,6.14.71C4.89.7,3.63.7,2.38.72a.8.8,0,0,0-.91.91q0,1.76,0,3.51A.82.82,0,0,0,2.38,6.06Z"/><circle class="cls-6" cx="22.15" cy="3.13" r="2.79"/></svg>