<svg width="390" height="66" viewBox="0 0 390 66" fill="none" xmlns="http://www.w3.org/2000/svg">
<path d="M41.3302 54.0071H13.0562V38.0746H39.7306V27.9198H13.0562V12.6877H41.3302V1.78878H0V64.9498H41.3302V54.0071Z" fill="white"/>
<path d="M50.7549 1.78878V64.9498H74.576C93.2956 64.9498 104.32 53.1755 104.32 33.1286C104.32 13.0816 93.2956 1.78878 74.576 1.78878H50.7549ZM63.8111 12.6877H73.0196C84.5195 12.6877 91.0043 19.9536 91.0043 33.1723C91.0043 46.8288 84.6924 54.0071 73.0196 54.0071H63.8111V12.6877Z" fill="white"/>
<path d="M125.806 1.78878H112.75V42.6268C112.75 56.5458 122.91 66.0003 138.906 66.0003C154.859 66.0003 165.018 56.5458 165.018 42.6268V1.78878H151.962V41.3137C151.962 49.4112 147.25 54.7075 138.906 54.7075C130.519 54.7075 125.806 49.4112 125.806 41.3137V1.78878Z" fill="white"/>
<path d="M199.864 64.9498C213.136 64.9498 221.004 58.3404 221.004 47.2227C221.004 38.8187 215.557 32.7784 207.083 31.6841V31.334C213.093 30.2397 217.848 24.1118 217.848 17.5462C217.848 8.09175 210.629 1.78878 199.95 1.78878H176.302V64.9498H199.864ZM184.084 8.74831H198.178C205.743 8.74831 209.98 12.2062 209.98 18.4654C209.98 25.2936 204.965 29.0141 195.757 29.0141H184.084V8.74831ZM184.084 57.9903V35.7986H197.961C207.905 35.7986 213.006 39.5191 213.006 46.8288C213.006 54.1385 208.078 57.9903 198.696 57.9903H184.084Z" fill="white"/>
<path d="M267.695 57.859H237.606V1.78878H229.824V64.9498H267.695V57.859Z" fill="white"/>
<path d="M299.99 0.738281C282.308 0.738281 271.24 13.3442 271.24 33.3912C271.24 53.4381 282.308 66.0003 299.99 66.0003C317.672 66.0003 328.74 53.4381 328.74 33.3912C328.74 13.3442 317.672 0.738281 299.99 0.738281ZM299.99 8.00421C312.744 8.00421 320.742 17.8088 320.742 33.3912C320.742 48.9298 312.744 58.7344 299.99 58.7344C287.236 58.7344 279.238 48.9298 279.238 33.3912C279.238 17.8088 287.236 8.00421 299.99 8.00421Z" fill="white"/>
<path d="M364.104 66.0003C377.895 66.0003 387.147 59.0408 390 46.5661H382.132C379.884 54.2698 373.312 58.7344 364.147 58.7344C351.826 58.7344 344.001 48.8422 344.001 33.3474C344.001 17.9839 351.912 8.00421 364.104 8.00421C373.01 8.00421 380.143 13.4318 382.132 21.7044H390C388.011 9.09847 377.679 0.738281 364.104 0.738281C347.027 0.738281 336.003 13.5193 336.003 33.3474C336.003 53.3506 346.897 66.0003 364.104 66.0003Z" fill="white"/>
</svg>
